<?xml version="1.0" encoding="iso-8859-1"?>
<!-- Generator: Adobe Illustrator 19.1.0, SVG Export Plug-In . SVG Version: 6.00 Build 0)  -->
<svg version="1.1" id="Capa_1" xmlns="http://www.w3.org/2000/svg" xmlns:xlink="http://www.w3.org/1999/xlink" x="0px" y="0px"
	 viewBox="0 0 63 63" style="enable-background:new 0 0 63 63;" xml:space="preserve">
<g>
	<g>
		<g id="group-22svg">
			<path id="path-1_15_" d="M61.5,44.44c-0.384,0-0.767-0.146-1.06-0.439L31.5,15.061L2.561,44.001
				c-0.586,0.586-1.535,0.586-2.121,0s-0.586-1.535,0-2.121l29.286-29.364c0.473-0.474,1.104-0.812,1.774-0.812
				c0.001,0,0.001,0,0.002,0c0.671,0,1.301,0.339,1.774,0.813l29.285,29.324c0.586,0.586,0.586,1.555,0,2.14
				C62.268,44.275,61.882,44.44,61.5,44.44z"/>
			<path id="path-2_13_" d="M54.712,51.296c-0.384,0-0.767-0.147-1.06-0.44L31.5,28.706L9.349,50.856
				c-0.586,0.586-1.535,0.586-2.121,0s-0.586-1.535,0-2.121L30.44,25.524c0.586-0.586,1.535-0.586,2.121,0l23.212,23.211
				c0.586,0.586,0.586,1.535,0,2.121C55.479,51.149,55.096,51.296,54.712,51.296z"/>
		</g>
	</g>
	<g>
	</g>
	<g>
	</g>
	<g>
	</g>
	<g>
	</g>
	<g>
	</g>
	<g>
	</g>
	<g>
	</g>
	<g>
	</g>
	<g>
	</g>
	<g>
	</g>
	<g>
	</g>
	<g>
	</g>
	<g>
	</g>
	<g>
	</g>
	<g>
	</g>
</g>
<g>
</g>
<g>
</g>
<g>
</g>
<g>
</g>
<g>
</g>
<g>
</g>
<g>
</g>
<g>
</g>
<g>
</g>
<g>
</g>
<g>
</g>
<g>
</g>
<g>
</g>
<g>
</g>
<g>
</g>
</svg>
